<svg width="20" height="20" viewBox="0 0 20 20" fill="none" xmlns="http://www.w3.org/2000/svg">
<path d="M16.6663 8.33329C16.6663 12.4941 12.0505 16.8275 10.5005 18.1658C10.3561 18.2744 10.1803 18.3331 9.99967 18.3331C9.81901 18.3331 9.64324 18.2744 9.49884 18.1658C7.94884 16.8275 3.33301 12.4941 3.33301 8.33329C3.33301 6.56518 4.03539 4.86949 5.28563 3.61925C6.53587 2.36901 8.23156 1.66663 9.99967 1.66663C11.7678 1.66663 13.4635 2.36901 14.7137 3.61925C15.964 4.86949 16.6663 6.56518 16.6663 8.33329Z" stroke="#FF9933" stroke-width="1.66667" stroke-linecap="round" stroke-linejoin="round"/>
<path d="M10 10.8334C11.3807 10.8334 12.5 9.71409 12.5 8.33337C12.5 6.95266 11.3807 5.83337 10 5.83337C8.61929 5.83337 7.5 6.95266 7.5 8.33337C7.5 9.71409 8.61929 10.8334 10 10.8334Z" stroke="#FF9933" stroke-width="1.66667" stroke-linecap="round" stroke-linejoin="round"/>
</svg>
